<svg width="102" height="102" viewBox="0 0 102 102" fill="none" xmlns="http://www.w3.org/2000/svg">
<rect width="102" height="102" rx="12" fill="url(#paint0_linear_9_21978)"/>
<path d="M40.8738 64.6099C37.8367 64.6162 35.3182 63.5459 33.1874 61.3526C31.4899 59.6098 30.4511 57.4494 30.0103 54.7999L61.6046 54.7793L61.5484 52.4729C61.3968 45.926 59.3411 40.6434 55.4545 36.7803C51.5561 32.9174 46.6996 30.9544 40.993 30.962C35.2627 30.9699 30.3806 33.0809 26.4887 37.2569C22.6318 41.3964 20.6738 46.4226 20.6722 52.2025C20.6824 57.9823 22.6275 62.9901 26.4821 67.106C30.3608 71.2576 35.3379 73.3631 41.258 73.3525C49.551 73.3449 55.8893 69.327 60.0841 61.3856L61.1575 59.2557L51.1311 59.1794C48.6555 62.8309 45.2755 64.6085 40.8738 64.6099ZM41.0481 39.9255C43.8006 39.9231 46.1609 40.7193 48.2601 42.3483C49.6276 43.4107 50.6306 44.7065 51.3057 46.3073L31.2077 46.3115C33.1641 42.0183 36.3972 39.9184 41.0481 39.9255Z" fill="#FCFCFC"/>
<path d="M62.6283 71.4301L61.9169 74.2655L60.1255 71.9707L57.243 72.163L58.8441 69.736L57.7761 67.0208L60.552 67.8017L62.77 65.9395L62.889 68.859L65.3328 70.4209L62.6283 71.4301Z" fill="#FCFCFC"/>
<path d="M68.4097 58.4864L69.1811 61.2977L66.5002 60.2164L64.1042 61.8384L64.2937 58.9189L62.0278 57.1047L64.8271 56.3838L65.8351 53.6445L67.3656 56.1195L70.2481 56.2397L68.4097 58.4864Z" fill="#FCFCFC"/>
<path d="M67.661 43.4811L69.749 45.4996L66.9022 45.9561L65.657 48.5993L64.3399 45.9921L61.4811 45.6077L63.5211 43.5412L62.9988 40.6577L65.5731 41.9913L68.1114 40.5977L67.661 43.4811Z" fill="#FCFCFC"/>
<path d="M59.6988 31.2175L62.4984 31.9023L60.2567 33.7405L60.4824 36.6601L58.0623 35.0621L55.3935 36.1915L56.1405 33.3561L54.266 31.1334L57.1484 30.9772L58.6546 28.4902L59.6988 31.2175Z" fill="#FCFCFC"/>
<path d="M46.8467 24.6666L49.6223 23.8376L48.5788 26.5649L50.2042 28.9798L47.3217 28.8236L45.5664 31.1424L44.8187 28.307L42.1021 27.3218L44.5218 25.7359L44.6045 22.8164L46.8467 24.6666Z" fill="#FCFCFC"/>
<path d="M32.3628 25.4817L34.3554 23.3672L34.8065 26.2507L37.4164 27.5122L34.8424 28.8458L34.4632 31.7413L32.4226 29.6748L29.5758 30.2034L30.8922 27.5963L29.5158 25.0252L32.3628 25.4817Z" fill="#FCFCFC"/>
<path d="M20.2673 33.521L20.9431 30.6855L22.7583 32.9563L25.6408 32.728L24.0634 35.1789L25.1669 37.8822L22.3792 37.1253L20.1849 39.0236L20.0304 36.1041L17.5747 34.5662L20.2673 33.521Z" fill="#FCFCFC"/>
<path fill-rule="evenodd" clip-rule="evenodd" d="M22.2003 41.792L22.2002 39.177L21.4503 39.8258L21.4504 43.4264C21.6773 42.8717 21.9273 42.3268 22.2003 41.792ZM21.4512 60.9665C21.6781 61.5208 21.9281 62.065 22.2013 62.599L22.2018 72.7511L22.2018 73.5011L21.4518 73.5011L12.0033 73.5011L12.0033 72.7511L12.0013 31.7511L12.0013 31.0011L12.7513 31.0011L19.8037 31.0011L19.6249 31.7511L12.7514 31.7511L12.7533 72.7511L21.4518 72.7511L21.4512 60.9665Z" fill="white"/>
<path fill-rule="evenodd" clip-rule="evenodd" d="M57.2805 37.3053L57.2566 37.2773L57.2805 37.2673L57.2805 37.3053ZM66.1678 31.375L65.7696 31.375L65.7832 31.3639L62.7626 30.625L66.5428 30.625L66.9178 30.625L66.9178 31L66.9178 39.8211L66.1678 40.2329L66.1678 31.375ZM66.1678 49.743L66.1678 51.5132L66.9178 52.7261L66.9178 48.151L66.1678 49.743ZM67.6685 62.4068C67.8378 62.6787 68.0217 62.9333 68.2203 63.1703L68.2201 63.1704L68.2274 63.1786C68.9359 63.9756 69.8104 64.5613 70.8441 64.9351C71.8713 65.3067 73.0598 65.4877 74.4024 65.4877C77.1961 65.4877 79.2932 64.6749 80.5942 62.9711C81.8938 61.2963 82.5122 58.8181 82.5122 55.6001L82.5122 31.375L91.3996 31.375L91.3996 56.5046C91.3995 58.8361 91.0418 60.997 90.3298 62.9905L90.3287 62.9937C89.6395 64.9801 88.5772 66.6991 87.1411 68.1554L87.1392 68.1573C85.7261 69.6109 83.9439 70.7577 81.7836 71.5933C79.6323 72.4254 77.0914 72.8468 74.1529 72.8468C71.3814 72.8468 68.9423 72.4568 66.8295 71.6852C66.4453 71.5396 66.0726 71.3833 65.7116 71.2161L64.7439 71.5772C65.3223 71.8764 65.9297 72.1464 66.566 72.3873L66.57 72.3888C68.7816 73.1969 71.3113 73.5968 74.1529 73.5968C77.161 73.5968 79.7975 73.1657 82.0542 72.2928C84.3014 71.4236 86.1784 70.2212 87.6761 68.6811C89.1916 67.1439 90.312 65.3291 91.0366 63.2413C91.7798 61.1599 92.1495 58.9133 92.1496 56.5046L92.1496 31L92.1495 30.625L91.7745 30.625L82.1372 30.625L81.7622 30.625L81.7622 31L81.7622 55.6001C81.7622 58.7439 81.1542 61.0267 80.0009 62.5124L79.999 62.5149C78.888 63.9706 77.0556 64.7377 74.4024 64.7377C73.1251 64.7377 72.0264 64.5653 71.0992 64.2299C70.3102 63.9445 69.6334 63.5245 69.0643 62.9698L67.6685 62.4068ZM59.1202 64.8907C59.4251 65.4945 59.7658 66.0672 60.1422 66.6089L59.0466 66.3006C58.9024 66.0643 58.7642 65.823 58.6319 65.5767C58.797 65.3523 58.9597 65.1237 59.1202 64.8907ZM56.5305 55.4996L56.5305 56.3798C56.5305 57.104 56.5605 57.8107 56.6208 58.4996L57.3738 58.4996C57.3116 57.8129 57.2805 57.1063 57.2805 56.3798L57.2805 55.4996L56.5305 55.4996ZM56.7375 59.5464L56.7311 59.4996L57.4881 59.4996L57.4954 59.5521L56.7375 59.5464Z" fill="white"/>
<defs>
<linearGradient id="paint0_linear_9_21978" x1="51" y1="0" x2="51" y2="89.7753" gradientUnits="userSpaceOnUse">
<stop stop-color="#B80101"/>
<stop offset="1" stop-color="#920000"/>
</linearGradient>
</defs>
</svg>
